<svg width="46" height="46" viewBox="0 0 46 46" fill="none" xmlns="http://www.w3.org/2000/svg">
<circle cx="23" cy="23" r="23" fill="white"/>
<path d="M23 33C21.6333 33 20.3417 32.7373 19.125 32.212C17.9083 31.6873 16.846 30.9707 15.938 30.062C15.0293 29.154 14.3127 28.0917 13.788 26.875C13.2627 25.6583 13 24.3667 13 23C13 21.6167 13.2627 20.321 13.788 19.113C14.3127 17.9043 15.0293 16.846 15.938 15.938C16.846 15.0293 17.9083 14.3123 19.125 13.787C20.3417 13.2623 21.6333 13 23 13C24.3833 13 25.679 13.2623 26.887 13.787C28.0957 14.3123 29.154 15.0293 30.062 15.938C30.9707 16.846 31.6873 17.9043 32.212 19.113C32.7373 20.321 33 21.6167 33 23V24.45C33 25.4333 32.6627 26.2707 31.988 26.962C31.3127 27.654 30.4833 28 29.5 28C28.9 28 28.3417 27.8667 27.825 27.6C27.3083 27.3333 26.8833 26.9833 26.55 26.55C26.1 27 25.571 27.3543 24.963 27.613C24.3543 27.871 23.7 28 23 28C21.6167 28 20.4377 27.5123 19.463 26.537C18.4877 25.5623 18 24.3833 18 23C18 21.6167 18.4877 20.4373 19.463 19.462C20.4377 18.4873 21.6167 18 23 18C24.3833 18 25.5627 18.4873 26.538 19.462C27.5127 20.4373 28 21.6167 28 23V24.45C28 24.9333 28.15 25.3123 28.45 25.587C28.75 25.8623 29.1 26 29.5 26C29.9 26 30.25 25.8623 30.55 25.587C30.85 25.3123 31 24.9333 31 24.45V23C31 20.8167 30.2123 18.9373 28.637 17.362C27.0623 15.7873 25.1833 15 23 15C20.8167 15 18.9373 15.7873 17.362 17.362C15.7873 18.9373 15 20.8167 15 23C15 25.1833 15.7873 27.0623 17.362 28.637C18.9373 30.2123 20.8167 31 23 31H27C27.2833 31 27.5207 31.096 27.712 31.288C27.904 31.4793 28 31.7167 28 32C28 32.2833 27.904 32.5207 27.712 32.712C27.5207 32.904 27.2833 33 27 33H23ZM23 26C23.8333 26 24.5417 25.7083 25.125 25.125C25.7083 24.5417 26 23.8333 26 23C26 22.1667 25.7083 21.4583 25.125 20.875C24.5417 20.2917 23.8333 20 23 20C22.1667 20 21.4583 20.2917 20.875 20.875C20.2917 21.4583 20 22.1667 20 23C20 23.8333 20.2917 24.5417 20.875 25.125C21.4583 25.7083 22.1667 26 23 26Z" fill="black"/>
</svg>
