<svg width="76" height="36" viewBox="0 0 76 36" fill="none" xmlns="http://www.w3.org/2000/svg">
<rect x="-1.5" y="1.5" width="32.6296" height="32.6296" transform="matrix(-1 0 0 1 32.6297 0)" stroke="#007E66" stroke-width="3"/>
<path d="M75.0607 18.1246C75.6465 18.7104 75.6465 19.6602 75.0607 20.246L65.5148 29.7919C64.929 30.3777 63.9792 30.3777 63.3935 29.7919C62.8077 29.2061 62.8077 28.2564 63.3935 27.6706L71.8787 19.1853L63.3935 10.7C62.8077 10.1142 62.8077 9.16449 63.3935 8.57871C63.9792 7.99292 64.929 7.99292 65.5148 8.57871L75.0607 18.1246ZM17.8149 17.6853L74.0001 17.6853L74.0001 20.6853L17.8149 20.6853L17.8149 17.6853Z" fill="#FDD100"/>
</svg>
