<svg width="46" height="46" viewBox="0 0 46 46" fill="none" xmlns="http://www.w3.org/2000/svg">
<circle cx="23" cy="23" r="23" fill="white"/>
<path d="M27.6 25C27.4 24.9 26.1 24.3 25.9 24.2C25.7 24.1 25.5 24.1 25.3 24.3C25.1 24.5 24.7 25.1 24.5 25.3C24.4 25.5 24.2 25.5 24 25.4C23.3 25.1 22.6 24.7 22 24.2C21.5 23.7 21 23.1 20.6 22.5C20.5 22.3 20.6 22.1 20.7 22C20.8 21.9 20.9 21.7 21.1 21.6C21.2 21.5 21.3 21.3 21.3 21.2C21.4 21.1 21.4 20.9 21.3 20.8C21.2 20.7 20.7 19.5 20.5 19C20.4 18.3 20.2 18.3 20 18.3H19.5C19.3 18.3 19 18.5 18.9 18.6C18.3 19.2 18 19.9 18 20.7C18.1 21.6 18.4 22.5 19 23.3C20.1 24.9 21.5 26.2 23.2 27C23.7 27.2 24.1 27.4 24.6 27.5C25.1 27.7 25.6 27.7 26.2 27.6C26.9 27.5 27.5 27 27.9 26.4C28.1 26 28.1 25.6 28 25.2L27.6 25ZM30.1 15.9C26.2 12 19.9 12 16 15.9C12.8 19.1 12.2 24 14.4 27.9L13 33L18.3 31.6C19.8 32.4 21.4 32.8 23 32.8C28.5 32.8 32.9 28.4 32.9 22.9C33 20.3 31.9 17.8 30.1 15.9ZM27.4 29.9C26.1 30.7 24.6 31.2 23 31.2C21.5 31.2 20.1 30.8 18.8 30.1L18.5 29.9L15.4 30.7L16.2 27.7L16 27.4C13.6 23.4 14.8 18.4 18.7 15.9C22.6 13.4 27.6 14.7 30 18.5C32.4 22.4 31.3 27.5 27.4 29.9Z" fill="black"/>
</svg>
